<svg width="128" height="108" viewBox="0 0 128 108" fill="white" xmlns="http://www.w3.org/2000/svg">
<path d="M36.4072 19.0343C38.3985 19.0343 40.242 18.4015 41.7476 17.326C42.5481 18.1369 46.0131 20.7024 49.6731 23.4122L49.6849 23.421L49.6877 23.423L49.6902 23.4248C52.8788 25.7854 56.2126 28.2534 58.0599 29.7648L51.9281 26.699L52.1198 34.9385C52.1198 34.9385 41.8592 23.9703 34.5966 23.4514C34.0264 23.4107 33.4752 23.6115 33.0139 23.9491C24.8157 29.9469 16.1307 41.159 12.4995 46.4711C11.4746 46.0768 10.3614 45.8606 9.19761 45.8606C4.11789 45.8606 0 49.9785 0 55.0582C0 60.138 4.11789 64.2559 9.19761 64.2559C14.2773 64.2559 18.3952 60.138 18.3952 55.0582C18.3952 54.3971 18.3255 53.7523 18.1929 53.1307L18.2036 53.1421L39.2814 43.3696L31.8084 49.1181L38.1317 63.2978C53.4611 54.4834 81.8204 59.4654 89.6767 64.0643L96.1916 49.693L88.7186 43.9445L109.737 53.8803C109.65 54.3877 109.605 54.9093 109.605 55.4415C109.605 60.5212 113.723 64.6391 118.802 64.6391C123.882 64.6391 128 60.5212 128 55.4415C128 50.3618 123.882 46.2439 118.802 46.2439C117.647 46.2439 116.542 46.4568 115.523 46.8457L115.545 46.8187C112.326 40.5337 100.152 28.8706 94.4671 23.8247C87.2624 23.8247 79.3293 31.2339 76.2635 34.9385C70.4815 18.5055 53.5233 11.0336 45.5894 9.29973C45.3113 4.46992 41.3067 0.639084 36.4072 0.639084C31.3275 0.639084 27.2096 4.75697 27.2096 9.83669C27.2096 14.9164 31.3275 19.0343 36.4072 19.0343Z" fill="#white"/>
<path d="M38.5455 73.4876C44.1687 73.4876 48.7273 68.929 48.7273 63.3057C48.7273 68.929 53.2858 73.4876 58.9091 73.4876C53.2858 73.4876 48.7273 78.0461 48.7273 83.6694C48.7273 78.0461 44.1687 73.4876 38.5455 73.4876Z" fill="#white"/>
<path d="M80.3636 63.3057C80.3636 68.929 75.8051 73.4876 70.1818 73.4876C75.8051 73.4876 80.3636 78.0461 80.3636 83.6694C80.3636 78.0461 84.9222 73.4876 90.5455 73.4876C84.9222 73.4876 80.3636 68.929 80.3636 63.3057Z" fill="#white"/>
<path d="M73.4546 85.4876C73.4546 90.3075 69.5472 94.2148 64.7273 94.2148C59.9073 94.2148 56 90.3075 56 85.4876C56 80.6676 59.9073 76.7603 64.7273 76.7603C69.5472 76.7603 73.4546 80.6676 73.4546 85.4876Z" fill="#white"/>
<path d="M64.5455 98.8061C62.3284 98.8061 57.209 98.7657 54.4679 96.9848L52.8555 102.044L50.6385 95.5682L48.8245 94.1516L46.6075 97.9555L45.5997 92.1279C43.517 90.0367 39.1904 85.4901 38.5455 84.033C39.0829 88.1479 41.7299 97.3895 48.0183 101.437L49.8323 99.0085L50.6385 103.461L54.4679 105.282L56.0803 102.812L57.6927 106.699C59.0364 106.901 62.2881 107.306 64.5455 107.306C66.8028 107.306 70.0545 106.901 71.3982 106.699L73.0106 102.449L74.623 105.282L78.4524 103.461L79.2586 99.0085L81.0726 101.437C87.361 97.3895 90.008 88.1479 90.5455 84.033C89.9005 85.4901 85.5739 90.0367 83.4912 92.1279L82.4834 97.5919L80.2664 94.1516L78.4524 95.5682L76.2354 102.044L74.623 96.9848C71.8819 98.7657 66.7625 98.8061 64.5455 98.8061Z" fill="#white"/>
</svg>
