<svg width="160" height="139" viewBox="0 0 160 139" fill="none" xmlns="http://www.w3.org/2000/svg">
<g opacity="0.8" filter="url(#filter0_f_59_928)">
<path d="M52.4072 34.3952C54.3985 34.3952 56.242 33.7624 57.7476 32.6869C58.5481 33.4978 62.0131 36.0633 65.6731 38.7731L65.6849 38.7819L65.6877 38.7839L65.6902 38.7857C68.8788 41.1463 72.2126 43.6143 74.0599 45.1257L67.9281 42.0599L68.1198 50.2994C68.1198 50.2994 57.8592 39.3313 50.5966 38.8123C50.0264 38.7716 49.4752 38.9724 49.0139 39.31C40.8157 45.3078 32.1307 56.5199 28.4995 61.8321C27.4746 61.4377 26.3614 61.2216 25.1976 61.2216C20.1179 61.2216 16 65.3395 16 70.4192C16 75.4989 20.1179 79.6168 25.1976 79.6168C30.2773 79.6168 34.3952 75.4989 34.3952 70.4192C34.3952 69.758 34.3255 69.1132 34.1929 68.4916L34.2036 68.503L55.2814 58.7305L47.8084 64.479L54.1317 78.6587C69.4611 69.8443 97.8204 74.8263 105.677 79.4252L112.192 65.0539L104.719 59.3054L125.737 69.2413C125.65 69.7486 125.605 70.2703 125.605 70.8024C125.605 75.8821 129.723 80 134.802 80C139.882 80 144 75.8821 144 70.8024C144 65.7227 139.882 61.6048 134.802 61.6048C133.647 61.6048 132.542 61.8177 131.523 62.2066L131.545 62.1796C128.326 55.8946 116.152 44.2315 110.467 39.1856C103.262 39.1856 95.3293 46.5948 92.2635 50.2994C86.4815 33.8664 69.5233 26.3946 61.5894 24.6606C61.3113 19.8308 57.3067 16 52.4072 16C47.3275 16 43.2096 20.1179 43.2096 25.1976C43.2096 30.2773 47.3275 34.3952 52.4072 34.3952Z" fill="url(#paint0_linear_59_928)"/>
<path d="M54.5455 88.8485C60.1687 88.8485 64.7273 84.2899 64.7273 78.6667C64.7273 84.2899 69.2858 88.8485 74.9091 88.8485C69.2858 88.8485 64.7273 93.407 64.7273 99.0303C64.7273 93.407 60.1687 88.8485 54.5455 88.8485Z" fill="url(#paint1_linear_59_928)"/>
<path d="M96.3636 78.6667C96.3636 84.2899 91.8051 88.8485 86.1818 88.8485C91.8051 88.8485 96.3636 93.407 96.3636 99.0303C96.3636 93.407 100.922 88.8485 106.545 88.8485C100.922 88.8485 96.3636 84.2899 96.3636 78.6667Z" fill="url(#paint2_linear_59_928)"/>
<path d="M89.4546 100.848C89.4546 105.668 85.5472 109.576 80.7273 109.576C75.9073 109.576 72 105.668 72 100.848C72 96.0285 75.9073 92.1212 80.7273 92.1212C85.5472 92.1212 89.4546 96.0285 89.4546 100.848Z" fill="url(#paint3_linear_59_928)"/>
<path d="M80.5455 114.167C78.3284 114.167 73.209 114.127 70.4679 112.346L68.8555 117.405L66.6385 110.929L64.8245 109.513L62.6075 113.316L61.5997 107.489C59.517 105.398 55.1904 100.851 54.5455 99.3939C55.0829 103.509 57.7299 112.75 64.0183 116.798L65.8323 114.369L66.6385 118.822L70.4679 120.643L72.0803 118.173L73.6927 122.06C75.0364 122.262 78.2881 122.667 80.5455 122.667C82.8028 122.667 86.0545 122.262 87.3982 122.06L89.0106 117.81L90.623 120.643L94.4524 118.822L95.2586 114.369L97.0726 116.798C103.361 112.75 106.008 103.509 106.545 99.3939C105.901 100.851 101.574 105.398 99.4912 107.489L98.4834 112.953L96.2664 109.513L94.4524 110.929L92.2354 117.405L90.623 112.346C87.8819 114.127 82.7625 114.167 80.5455 114.167Z" fill="url(#paint4_linear_59_928)"/>
</g>
<path d="M52.4072 34.3952C54.3985 34.3952 56.242 33.7624 57.7476 32.6869C58.5481 33.4978 62.0131 36.0633 65.6731 38.7731L65.6849 38.7819L65.6877 38.7839L65.6902 38.7857C68.8788 41.1463 72.2126 43.6143 74.0599 45.1257L67.9281 42.0599L68.1198 50.2994C68.1198 50.2994 57.8592 39.3313 50.5966 38.8123C50.0264 38.7716 49.4752 38.9724 49.0139 39.31C40.8157 45.3078 32.1307 56.5199 28.4995 61.8321C27.4746 61.4377 26.3614 61.2216 25.1976 61.2216C20.1179 61.2216 16 65.3395 16 70.4192C16 75.4989 20.1179 79.6168 25.1976 79.6168C30.2773 79.6168 34.3952 75.4989 34.3952 70.4192C34.3952 69.758 34.3255 69.1132 34.1929 68.4916L34.2036 68.503L55.2814 58.7305L47.8084 64.479L54.1317 78.6587C69.4611 69.8443 97.8204 74.8263 105.677 79.4252L112.192 65.0539L104.719 59.3054L125.737 69.2413C125.65 69.7486 125.605 70.2703 125.605 70.8024C125.605 75.8821 129.723 80 134.802 80C139.882 80 144 75.8821 144 70.8024C144 65.7227 139.882 61.6048 134.802 61.6048C133.647 61.6048 132.542 61.8177 131.523 62.2066L131.545 62.1796C128.326 55.8946 116.152 44.2315 110.467 39.1856C103.262 39.1856 95.3293 46.5948 92.2635 50.2994C86.4815 33.8664 69.5233 26.3946 61.5894 24.6606C61.3113 19.8308 57.3067 16 52.4072 16C47.3275 16 43.2096 20.1179 43.2096 25.1976C43.2096 30.2773 47.3275 34.3952 52.4072 34.3952Z" fill="url(#paint5_linear_59_928)"/>
<path d="M54.5455 88.8485C60.1687 88.8485 64.7273 84.2899 64.7273 78.6667C64.7273 84.2899 69.2858 88.8485 74.9091 88.8485C69.2858 88.8485 64.7273 93.407 64.7273 99.0303C64.7273 93.407 60.1687 88.8485 54.5455 88.8485Z" fill="url(#paint6_linear_59_928)"/>
<path d="M96.3636 78.6667C96.3636 84.2899 91.8051 88.8485 86.1818 88.8485C91.8051 88.8485 96.3636 93.407 96.3636 99.0303C96.3636 93.407 100.922 88.8485 106.545 88.8485C100.922 88.8485 96.3636 84.2899 96.3636 78.6667Z" fill="url(#paint7_linear_59_928)"/>
<path d="M89.4546 100.848C89.4546 105.668 85.5472 109.576 80.7273 109.576C75.9073 109.576 72 105.668 72 100.848C72 96.0285 75.9073 92.1212 80.7273 92.1212C85.5472 92.1212 89.4546 96.0285 89.4546 100.848Z" fill="url(#paint8_linear_59_928)"/>
<path d="M80.5455 114.167C78.3284 114.167 73.209 114.127 70.4679 112.346L68.8555 117.405L66.6385 110.929L64.8245 109.513L62.6075 113.316L61.5997 107.489C59.517 105.398 55.1904 100.851 54.5455 99.3939C55.0829 103.509 57.7299 112.75 64.0183 116.798L65.8323 114.369L66.6385 118.822L70.4679 120.643L72.0803 118.173L73.6927 122.06C75.0364 122.262 78.2881 122.667 80.5455 122.667C82.8028 122.667 86.0545 122.262 87.3982 122.06L89.0106 117.81L90.623 120.643L94.4524 118.822L95.2586 114.369L97.0726 116.798C103.361 112.75 106.008 103.509 106.545 99.3939C105.901 100.851 101.574 105.398 99.4912 107.489L98.4834 112.953L96.2664 109.513L94.4524 110.929L92.2354 117.405L90.623 112.346C87.8819 114.127 82.7625 114.167 80.5455 114.167Z" fill="url(#paint9_linear_59_928)"/>
<defs>
<filter id="filter0_f_59_928" x="0" y="0" width="160" height="138.667" filterUnits="userSpaceOnUse" color-interpolation-filters="sRGB">
<feFlood flood-opacity="0" result="BackgroundImageFix"/>
<feBlend mode="normal" in="SourceGraphic" in2="BackgroundImageFix" result="shape"/>
<feGaussianBlur stdDeviation="8" result="effect1_foregroundBlur_59_928"/>
</filter>
<linearGradient id="paint0_linear_59_928" x1="80" y1="16" x2="80" y2="122.667" gradientUnits="userSpaceOnUse">
<stop stop-color="#5C5C5C"/>
<stop offset="0.665944" stop-color="#DDDDDD"/>
<stop offset="1" stop-color="#2A2A2A"/>
</linearGradient>
<linearGradient id="paint1_linear_59_928" x1="80" y1="16" x2="80" y2="122.667" gradientUnits="userSpaceOnUse">
<stop stop-color="#5C5C5C"/>
<stop offset="0.665944" stop-color="#DDDDDD"/>
<stop offset="1" stop-color="#2A2A2A"/>
</linearGradient>
<linearGradient id="paint2_linear_59_928" x1="80" y1="16" x2="80" y2="122.667" gradientUnits="userSpaceOnUse">
<stop stop-color="#5C5C5C"/>
<stop offset="0.665944" stop-color="#DDDDDD"/>
<stop offset="1" stop-color="#2A2A2A"/>
</linearGradient>
<linearGradient id="paint3_linear_59_928" x1="80" y1="16" x2="80" y2="122.667" gradientUnits="userSpaceOnUse">
<stop stop-color="#5C5C5C"/>
<stop offset="0.665944" stop-color="#DDDDDD"/>
<stop offset="1" stop-color="#2A2A2A"/>
</linearGradient>
<linearGradient id="paint4_linear_59_928" x1="80" y1="16" x2="80" y2="122.667" gradientUnits="userSpaceOnUse">
<stop stop-color="#5C5C5C"/>
<stop offset="0.665944" stop-color="#DDDDDD"/>
<stop offset="1" stop-color="#2A2A2A"/>
</linearGradient>
<linearGradient id="paint5_linear_59_928" x1="80" y1="16" x2="80" y2="122.667" gradientUnits="userSpaceOnUse">
<stop stop-color="#5C5C5C"/>
<stop offset="0.665944" stop-color="#DDDDDD"/>
<stop offset="1" stop-color="#2A2A2A"/>
</linearGradient>
<linearGradient id="paint6_linear_59_928" x1="80" y1="16" x2="80" y2="122.667" gradientUnits="userSpaceOnUse">
<stop stop-color="#5C5C5C"/>
<stop offset="0.665944" stop-color="#DDDDDD"/>
<stop offset="1" stop-color="#2A2A2A"/>
</linearGradient>
<linearGradient id="paint7_linear_59_928" x1="80" y1="16" x2="80" y2="122.667" gradientUnits="userSpaceOnUse">
<stop stop-color="#5C5C5C"/>
<stop offset="0.665944" stop-color="#DDDDDD"/>
<stop offset="1" stop-color="#2A2A2A"/>
</linearGradient>
<linearGradient id="paint8_linear_59_928" x1="80" y1="16" x2="80" y2="122.667" gradientUnits="userSpaceOnUse">
<stop stop-color="#5C5C5C"/>
<stop offset="0.665944" stop-color="#DDDDDD"/>
<stop offset="1" stop-color="#2A2A2A"/>
</linearGradient>
<linearGradient id="paint9_linear_59_928" x1="80" y1="16" x2="80" y2="122.667" gradientUnits="userSpaceOnUse">
<stop stop-color="#5C5C5C"/>
<stop offset="0.665944" stop-color="#DDDDDD"/>
<stop offset="1" stop-color="#2A2A2A"/>
</linearGradient>
</defs>
</svg>
